<svg id="Capa_1" enable-background="new 0 0 512 512" height="512" viewBox="0 0 512 512" width="512" xmlns="http://www.w3.org/2000/svg" xmlns:xlink="http://www.w3.org/1999/xlink"><linearGradient id="SVGID_1_" gradientUnits="userSpaceOnUse" x1="256" x2="256" y1="512" y2="0"><stop offset="0" stop-color="#5558ff"/><stop offset="1" stop-color="#00c0ff"/></linearGradient><g><g><g><path d="m106 240h300c41.355 0 75-33.645 75-75 0-37.933-28.304-69.377-64.902-74.323-12.335-35.764-46.439-60.677-85.098-60.677-17.787 0-34.771 5.138-49.297 14.718-19.453-27.639-51.401-44.718-85.703-44.718-53.265 0-97.394 39.871-104.115 91.332-34.631 6.621-60.885 37.136-60.885 73.668 0 41.355 33.644 75 75 75zm0-120c8.284 0 15-6.716 15-15 0-41.355 33.645-75 75-75 29.014 0 55.684 17.169 67.944 43.741 2.064 4.474 6.194 7.648 11.048 8.493 4.853.845 9.813-.748 13.269-4.261 11.395-11.59 26.572-17.973 42.739-17.973 28.418 0 53.143 20.181 58.788 47.985 1.42 6.991 7.566 12.015 14.7 12.015h1.512c24.813 0 45 20.187 45 45s-20.187 45-45 45h-300c-24.813 0-45-20.187-45-45s20.186-45 45-45zm376.471 222.51-16.471-9.51 16.471-9.51c7.175-4.142 9.633-13.316 5.49-20.49-4.142-7.175-13.316-9.632-20.49-5.49l-16.471 9.51v-19.02c0-8.284-6.716-15-15-15s-15 6.716-15 15v19.019l-16.471-9.509c-7.175-4.144-16.349-1.685-20.49 5.49-4.143 7.174-1.685 16.348 5.49 20.49l16.471 9.51-16.471 9.51c-7.175 4.142-9.633 13.316-5.49 20.49 4.155 7.197 13.336 9.62 20.49 5.49l16.471-9.509v19.019c0 8.284 6.716 15 15 15s15-6.716 15-15v-19.02l16.472 9.51c7.143 4.125 16.33 1.715 20.49-5.49 4.142-7.174 1.684-16.348-5.491-20.49zm-354.51 20.49c4.143-7.174 1.685-16.348-5.49-20.49l-16.471-9.51 16.471-9.51c7.175-4.142 9.633-13.316 5.49-20.49-4.143-7.175-13.317-9.632-20.49-5.49l-16.471 9.51v-19.02c0-8.284-6.716-15-15-15s-15 6.716-15 15v19.019l-16.471-9.509c-7.175-4.144-16.348-1.685-20.49 5.49-4.143 7.174-1.685 16.348 5.49 20.49l16.471 9.51-16.471 9.51c-7.175 4.142-9.633 13.316-5.49 20.49 4.155 7.197 13.336 9.62 20.49 5.49l16.471-9.509v19.019c0 8.284 6.716 15 15 15s15-6.716 15-15v-19.02l16.472 9.51c7.142 4.125 16.329 1.716 20.489-5.49zm90 60c-4.142-7.175-13.316-9.632-20.49-5.49l-16.471 9.51v-19.02c0-8.284-6.716-15-15-15s-15 6.716-15 15v19.019l-16.471-9.509c-7.174-4.144-16.349-1.685-20.49 5.49-4.143 7.174-1.685 16.348 5.49 20.49l16.471 9.51-16.471 9.51c-7.175 4.142-9.633 13.316-5.49 20.49 4.155 7.197 13.336 9.62 20.49 5.49l16.471-9.509v18.019c0 8.284 6.716 15 15 15s15-6.716 15-15v-18.02l16.472 9.51c7.143 4.125 16.33 1.715 20.49-5.49 4.143-7.174 1.685-16.348-5.49-20.49l-16.472-9.51 16.471-9.51c7.175-4.142 9.633-13.316 5.49-20.49zm180 0c-4.143-7.175-13.315-9.632-20.49-5.49l-16.471 9.51v-19.02c0-8.284-6.716-15-15-15s-15 6.716-15 15v19.019l-16.471-9.509c-7.175-4.144-16.348-1.685-20.49 5.49-4.143 7.174-1.685 16.348 5.49 20.49l16.471 9.51-16.471 9.51c-7.175 4.142-9.633 13.316-5.49 20.49 4.155 7.197 13.336 9.62 20.49 5.49l16.471-9.509v18.019c0 8.284 6.716 15 15 15s15-6.716 15-15v-18.02l16.472 9.51c7.143 4.125 16.33 1.715 20.49-5.49 4.143-7.174 1.685-16.348-5.49-20.49l-16.472-9.51 16.471-9.51c7.175-4.142 9.633-13.316 5.49-20.49zm-90-60c4.143-7.174 1.685-16.348-5.49-20.49l-16.471-9.51 16.471-9.51c7.175-4.142 9.633-13.316 5.49-20.49-4.143-7.175-13.316-9.632-20.49-5.49l-16.471 9.51v-19.02c0-8.284-6.716-15-15-15s-15 6.716-15 15v19.019l-16.471-9.509c-7.176-4.144-16.349-1.685-20.49 5.49-4.143 7.174-1.685 16.348 5.49 20.49l16.471 9.51-16.471 9.51c-7.175 4.142-9.633 13.316-5.49 20.49 4.155 7.197 13.336 9.62 20.49 5.49l16.471-9.509v19.019c0 8.284 6.716 15 15 15s15-6.716 15-15v-19.02l16.472 9.51c7.142 4.125 16.329 1.716 20.489-5.49z" fill="url(#SVGID_1_)"/></g></g></g></svg>